<?xml version="1.0" encoding="utf-8"?>
<!-- Generator: Adobe Illustrator 26.2.1, SVG Export Plug-In . SVG Version: 6.00 Build 0)  -->
<svg version="1.1" id="Layer_1" xmlns="http://www.w3.org/2000/svg" xmlns:xlink="http://www.w3.org/1999/xlink" x="0px" y="0px"
	 width="300px" height="300px" viewBox="0 0 300 300" style="enable-background:new 0 0 300 300;" xml:space="preserve">
<style type="text/css">
	.st0{fill:none;stroke:#FFFFFF;stroke-miterlimit:10;}
</style>
<g>
	<path class="st0" d="M244.5,188.6c-14.9-12.7-64.8-56.6-64.8-56.6l24.1-22.9c1.1,0.6,2.4,0.9,3.7,0.9c4.5,0,8.2-3.7,8.2-8.2
		c0-2.2-0.9-4.3-2.4-5.8l-43.7-43.7c-1.5-1.5-3.6-2.4-5.8-2.4c-4.6,0-8.2,3.7-8.2,8.2c0,1.8,0.6,3.5,1.6,4.9L99,121
		c-1.4-1-3-1.5-4.7-1.5c-2.2,0-4.3,0.9-5.8,2.4c-1.5,1.5-2.4,3.6-2.4,5.8c0,2.2,0.9,4.3,2.4,5.8l43.7,43.7c1.5,1.5,3.6,2.4,5.8,2.4
		s4.3-0.9,5.8-2.4c1.5-1.5,2.4-3.6,2.4-5.8c0-1.4-0.3-2.7-1-3.9l23-23.9c0,0,43.2,50.5,56,65.4c2.7,3.1,6.4,5.3,10.5,5.5
		c8.4,0.5,15.5-6.4,15.5-14.4C250.1,196,248.3,191.8,244.5,188.6z"/>
	<path class="st0" d="M147.1,221.3c0-8.8-7.1-15.9-15.9-15.9H83.7c-8.8,0-15.9,7.1-15.9,15.9v2.9h-7.9v15.9H155v-15.9h-7.9V221.3z"
		/>
</g>
</svg>
