<?xml version="1.0" encoding="utf-8"?>
<!-- Generator: Adobe Illustrator 26.2.1, SVG Export Plug-In . SVG Version: 6.00 Build 0)  -->
<svg version="1.1" id="Layer_1" xmlns="http://www.w3.org/2000/svg" xmlns:xlink="http://www.w3.org/1999/xlink" x="0px" y="0px"
	 width="300px" height="300px" viewBox="0 0 300 300" style="enable-background:new 0 0 300 300;" xml:space="preserve">
<style type="text/css">
	.st0{fill:none;stroke:#FFFFFF;stroke-miterlimit:10;}
</style>
<path class="st0" d="M225.7,129.2c-19.5,1.6-85.9,5.8-85.9,5.8l0.9-33.3c1.2-0.4,2.3-1.1,3.3-2c3.2-3.2,3.2-8.4,0-11.6
	c-1.5-1.5-3.6-2.4-5.8-2.4l-61.8,0c-2.2,0-4.3,0.9-5.8,2.4c-3.2,3.2-3.2,8.4,0,11.6c1.3,1.3,2.9,2.1,4.6,2.3L75,184.3
	c-1.7,0.3-3.2,1.1-4.4,2.3c-1.5,1.5-2.4,3.6-2.4,5.8c0,2.2,0.9,4.3,2.4,5.8c1.5,1.5,3.6,2.4,5.8,2.4l61.8,0c2.2,0,4.3-0.9,5.8-2.4
	c1.5-1.5,2.4-3.6,2.4-5.8c0-2.2-0.9-4.3-2.4-5.8c-1-1-2.2-1.7-3.5-2.1l-0.7-33.2c0,0,66.3,5.2,85.9,6.6c4.1,0.3,8.2-0.8,11.3-3.5
	c6.3-5.6,6.4-15.4,0.7-21.1C234.8,130.4,230.6,128.8,225.7,129.2z"/>
<path class="st0" d="M147.1,221.3c0-8.8-7.1-15.9-15.9-15.9H83.7c-8.8,0-15.9,7.1-15.9,15.9v2.9h-7.9v15.9H155v-15.9h-7.9
	L147.1,221.3L147.1,221.3z"/>
<line class="st0" x1="61.4" y1="197.8" x2="40.2" y2="174.5"/>
<line class="st0" x1="56.1" y1="202.9" x2="27.4" y2="207.9"/>
<line class="st0" x1="65" y1="206.7" x2="33.7" y2="228.7"/>
<line class="st0" x1="150.1" y1="198.8" x2="164.7" y2="169.6"/>
<line class="st0" x1="160.1" y1="200.9" x2="182.4" y2="192.6"/>
<line class="st0" x1="150.1" y1="206.7" x2="174.2" y2="224.9"/>
</svg>
