<?xml version="1.0" encoding="iso-8859-1"?>
<!-- Generator: Adobe Illustrator 26.2.1, SVG Export Plug-In . SVG Version: 6.00 Build 0)  -->
<svg version="1.1" id="Layer_1" xmlns="http://www.w3.org/2000/svg" xmlns:xlink="http://www.w3.org/1999/xlink" x="0px" y="0px"
	 width="300px" height="300px" viewBox="0 0 300 300" enable-background="new 0 0 300 300" xml:space="preserve">
<path fill="none" stroke="#101820" stroke-miterlimit="10" d="M163.026,218.854c28.643-6.441,9.345-32.969,35.094-41.337
	l14.117,5.83C225.59,216.178,186.719,236.622,163.026,218.854z M235.057,148.704c4.415-16.354,16.983-70.494,16.983-70.494
	c0.958-4.462-5.042-6.931-7.487-3.09c0,0-29.1,47.324-37.442,62.045c-6.589,11.642-5.381,15.637-3.895,30.948l12.899,5.32
	C227.912,163.618,231.574,161.634,235.057,148.704z"/>
<line fill="none" stroke="#101820" stroke-miterlimit="10" x1="52.522" y1="215.283" x2="149.419" y2="220.189"/>
<line fill="none" stroke="#101820" stroke-miterlimit="10" x1="49.376" y1="205.845" x2="128.551" y2="211.089"/>
<line fill="none" stroke="#101820" stroke-miterlimit="10" x1="69.301" y1="189.591" x2="147.804" y2="208.905"/>
<line fill="none" stroke="#101820" stroke-miterlimit="10" x1="33.645" y1="193.99" x2="84.506" y2="201.468"/>
<line fill="none" stroke="#101820" stroke-miterlimit="10" x1="102.334" y1="184.028" x2="162.718" y2="205.845"/>
<line fill="none" stroke="#101820" stroke-miterlimit="10" x1="81.36" y1="237.511" x2="141.66" y2="229.645"/>
</svg>
