<?xml version="1.0" encoding="iso-8859-1"?>
<!-- Generator: Adobe Illustrator 26.2.1, SVG Export Plug-In . SVG Version: 6.00 Build 0)  -->
<svg version="1.1" id="Layer_1" xmlns="http://www.w3.org/2000/svg" xmlns:xlink="http://www.w3.org/1999/xlink" x="0px" y="0px"
	 width="300px" height="300px" viewBox="0 0 300 300" enable-background="new 0 0 300 300" xml:space="preserve">
<g>
	<path fill="none" stroke="#DDE5ED" stroke-miterlimit="10" d="M238.605,132.429c-7.116,0.363-14.232,0.734-21.348,1.089
		c-27.493,1.373-54.986,2.747-82.481,4.086c-1.029,0.05-2.872-0.038-2.991-0.451c-0.698-2.407-2.256-3.318-4.103-3.743
		c-1.808-0.417-3.125-1.969-3.144-3.824c-0.023-2.16,0.106-12.145,0.13-16.702c0.79-0.001,1.572-0.004,2.363-0.006
		c2.159-0.005,3.957-1.743,3.948-3.901c0-0.012-0.001-0.024,0-0.035c-0.018-2.53,0.072-5.081-0.214-7.584
		c-0.518-4.534-3.848-7.817-8.504-7.849c-16.035-0.111-32.071-0.088-48.105,0.104c-4.85,0.058-8.342,3.762-8.615,8.589
		c-0.129,2.259-0.114,4.527-0.091,6.895c0.021,2.172,1.789,3.924,3.961,3.918c0.934-0.002,1.864-0.005,2.797-0.007
		c0.058,15.734,0.291,48.725,0.358,65.179c-0.995,0.002-1.984,0.005-2.981,0.007c-2.167,0.006-3.931,1.759-3.947,3.926
		c-0.018,2.42-0.028,4.709,0.116,6.99c0.295,4.64,3.794,8.392,8.4,8.428c16.152,0.126,32.307,0.084,48.458-0.12
		c4.691-0.059,8.2-3.712,8.471-8.306c0.139-2.351,0.102-4.714,0.056-7.167c-0.04-2.159-1.804-3.889-3.963-3.884
		c-0.727,0.002-1.45,0.004-2.178,0.005c-0.114-5.268-0.386-14.839-0.384-16.75c0.002-1.704,1.101-3.208,2.72-3.74
		c1.455-0.479,2.676-0.921,3.078-1.756c1.366-2.84,3.345-2.592,5.633-2.49c34.263,1.532,68.527,3.062,102.791,4.574
		c8.33,0.367,12.998-4.294,12.881-12.775C251.6,136.604,246.855,132.009,238.605,132.429z"/>
	<path fill="none" stroke="#DDE5ED" stroke-miterlimit="10" d="M140.232,217.395h-0.608c0-11.99-4.179-14.615-14.811-14.615
		c-18.705,0.028-37.41-0.002-56.115,0.028c-14.394,0-13.849,7.722-13.885,14.587h-0.866c-2.181,0-3.949,1.768-3.949,3.949v8.251
		c0,2.181,1.768,3.949,3.949,3.949h86.285c2.181,0,3.949-1.768,3.949-3.949v-8.251C144.181,219.163,142.413,217.395,140.232,217.395
		z"/>
	<line fill="none" stroke="#DDE5ED" stroke-miterlimit="10" x1="57.532" y1="192.058" x2="44.907" y2="169.176"/>
	<line fill="none" stroke="#DDE5ED" stroke-miterlimit="10" x1="51.219" y1="195.215" x2="42.54" y2="188.902"/>
	<line fill="none" stroke="#DDE5ED" stroke-miterlimit="10" x1="49.998" y1="202.609" x2="36.227" y2="212.179"/>
	<line fill="none" stroke="#DDE5ED" stroke-miterlimit="10" x1="140.777" y1="188.902" x2="160.898" y2="172.332"/>
	<line fill="none" stroke="#DDE5ED" stroke-miterlimit="10" x1="140.777" y1="197.187" x2="153.402" y2="195.215"/>
	<line fill="none" stroke="#DDE5ED" stroke-miterlimit="10" x1="144.181" y1="204.683" x2="175.102" y2="212.179"/>
</g>
</svg>
