<?xml version="1.0" encoding="iso-8859-1"?>
<!-- Generator: Adobe Illustrator 26.2.1, SVG Export Plug-In . SVG Version: 6.00 Build 0)  -->
<svg version="1.1" id="Layer_1" xmlns="http://www.w3.org/2000/svg" xmlns:xlink="http://www.w3.org/1999/xlink" x="0px" y="0px"
	 width="300px" height="300px" viewBox="0 0 300 300" enable-background="new 0 0 300 300" xml:space="preserve">
<path fill-rule="evenodd" clip-rule="evenodd" fill="none" stroke="#DDE5ED" stroke-miterlimit="10" d="M236.839,196.215
	l0.211,0.724c4.049,14.47-1.996,30.174-20.809,31.717c-35.319,2.899-87.266,6.802-122.596,9.555
	C74.55,239.7,66.811,225.07,68.269,209.354L236.839,196.215z M228.58,189.15L75.334,201.094c-8.459,0.659-15.86-5.671-16.519-14.13
	c-0.659-8.459,5.671-15.86,14.13-16.519l34.335-2.676c18.17-1.285,23.051,13.667,31.989,12.924
	c8.938-0.743,12.466-16.204,29.186-17.693l57.735-4.5c8.459-0.659,15.86,5.671,16.519,14.13S237.039,188.491,228.58,189.15z
	 M195.262,155.122c-5.187,0.404-10.091-1.588-14.421-3.339c-8.914-3.599-9.62-3.552-17.876,1.393
	c-3.999,2.401-8.535,5.129-13.73,5.534c-5.203,0.406-10.099-1.587-14.429-3.339c-8.891-3.601-9.635-3.551-17.868,1.393
	c-4.006,2.401-8.535,5.129-13.737,5.534c-5.187,0.404-10.099-1.587-14.421-3.339c-7.976-3.225-11.73-4.914-22.371,4.943
	c-1.028,0.959-2.231,1.446-3.441,1.54c-2.988,0.233-5.979-1.939-6.241-5.303c-0.131-1.678,0.475-3.406,1.812-4.643
	c14.946-13.969,24.075-11.466,34.583-7.205c3.454,1.396,6.71,2.715,9.185,2.522c2.483-0.193,5.502-2.001,8.683-3.915
	c11.364-6.814,15.781-7.212,28.167-2.195c3.447,1.396,6.71,2.715,9.185,2.522c2.475-0.193,5.495-2.001,8.683-3.915
	c11.364-6.814,15.773-7.211,28.159-2.195c3.462,1.395,6.71,2.715,9.185,2.522c2.483-0.193,5.487-2,8.691-3.915
	c9.581-5.75,18.305-9.829,35.108,1.812c1.475,1.026,2.324,2.617,2.453,4.272c0.246,3.157-2.104,5.938-5.307,6.188
	c-1.272,0.099-2.592-0.222-3.74-1.004c-11.708-8.091-15.201-5.823-22.573-1.401C204.993,151.99,200.457,154.717,195.262,155.122z
	 M231.464,127.255l-168.57,13.139c-2.966-38.059,28.163-71.574,78.91-75.53C192.551,60.908,228.498,89.196,231.464,127.255z"/>
<g>
</g>
<g>
</g>
<g>
</g>
<g>
</g>
<g>
</g>
<g>
</g>
<g>
</g>
<g>
</g>
<g>
</g>
<g>
</g>
<g>
</g>
<g>
</g>
<g>
</g>
<g>
</g>
<g>
</g>
</svg>
