<?xml version="1.0" encoding="iso-8859-1"?>
<!-- Generator: Adobe Illustrator 26.2.1, SVG Export Plug-In . SVG Version: 6.00 Build 0)  -->
<svg version="1.1" id="Layer_1" xmlns="http://www.w3.org/2000/svg" xmlns:xlink="http://www.w3.org/1999/xlink" x="0px" y="0px"
	 width="300px" height="300px" viewBox="0 0 300 300" enable-background="new 0 0 300 300" xml:space="preserve">
<path fill-rule="evenodd" clip-rule="evenodd" fill="none" stroke="#101820" stroke-miterlimit="10" d="M223.92,242.067
	l-0.006,0.003c-4.314,1.979-10.626,0.718-13.202-4.9l-23.523-51.29c0,0-7.08,3.225-14.886,6.827
	c-14.521-44.434-20.02-93.065-10.625-97.374c2.697-1.237,5.839-0.071,7.225,2.902c3.921,8.39,45.99,100.23,59.917,130.63
	C231.111,233.861,228.916,239.776,223.92,242.067z"/>
<path fill-rule="evenodd" clip-rule="evenodd" fill="none" stroke="#101820" stroke-miterlimit="10" d="M101.378,125.774
	c1.355-4.382-0.948-6.665-5.452-13.311c-3.322-4.919-4.654-11.397-2.346-16.86c6.574-15.596,20.323-46.351,20.323-46.351
	l3.805,1.177L105.94,88.481l6.361,1.967l13.181-37.616l3.85,1.19l-10.67,38.392l6.361,1.967l13.302-37.578l3.564,1.102
	L131.385,96.35l6.361,1.967l11.767-38.053l3.482,1.077c0,0-5.541,33.064-8.775,49.748c-1.147,5.913-6.108,10.563-11.736,12.742
	c-7.492,2.902-10.655,3.425-12.032,7.877l-21.426,69.288c-1.624,5.251-7.21,8.193-12.487,6.562c-5.27-1.63-8.221-7.212-6.597-12.463
	C79.943,195.094,101.378,125.774,101.378,125.774z"/>
</svg>
