<?xml version="1.0" encoding="iso-8859-1"?>
<!-- Generator: Adobe Illustrator 26.2.1, SVG Export Plug-In . SVG Version: 6.00 Build 0)  -->
<svg version="1.1" id="Layer_1" xmlns="http://www.w3.org/2000/svg" xmlns:xlink="http://www.w3.org/1999/xlink" x="0px" y="0px"
	 width="300px" height="300px" viewBox="0 0 300 300" enable-background="new 0 0 300 300" xml:space="preserve">
<g>
	<path fill="none" stroke="#101820" stroke-miterlimit="10" d="M244.542,188.618c-14.912-12.708-64.784-56.635-64.784-56.635
		l24.131-22.894c1.136,0.578,2.4,0.895,3.703,0.895c4.535,0,8.213-3.678,8.213-8.205c0-2.18-0.864-4.273-2.41-5.803l-43.697-43.705
		c-1.546-1.538-3.631-2.402-5.803-2.402c-4.566,0-8.205,3.702-8.205,8.205c0,1.775,0.576,3.487,1.622,4.89l-58.324,58.055
		c-1.379-0.968-3.027-1.507-4.737-1.507c-2.172,0-4.257,0.864-5.803,2.394c-1.53,1.546-2.402,3.631-2.402,5.811
		c0,2.172,0.872,4.257,2.402,5.803l43.705,43.689c1.538,1.546,3.623,2.41,5.803,2.41c2.18,0,4.265-0.864,5.803-2.41
		c1.538-1.53,2.402-3.623,2.402-5.803c0-1.372-0.346-2.708-0.988-3.895l22.979-23.931c0,0,43.213,50.531,56.048,65.395
		c2.695,3.123,6.35,5.272,10.472,5.526c8.419,0.531,15.459-6.374,15.459-14.42C250.131,195.982,248.308,191.828,244.542,188.618z"/>
	<path fill="none" stroke="#101820" stroke-miterlimit="10" d="M147.072,221.349c0-8.76-7.095-15.855-15.855-15.855H83.652
		c-8.76,0-15.855,7.095-15.855,15.855v2.927h-7.928v15.855H155v-15.855h-7.928V221.349z"/>
</g>
</svg>
