<?xml version="1.0" encoding="iso-8859-1"?>
<!-- Generator: Adobe Illustrator 26.2.1, SVG Export Plug-In . SVG Version: 6.00 Build 0)  -->
<svg version="1.1" id="Layer_1" xmlns="http://www.w3.org/2000/svg" xmlns:xlink="http://www.w3.org/1999/xlink" x="0px" y="0px"
	 width="300px" height="300px" viewBox="0 0 300 300" enable-background="new 0 0 300 300" xml:space="preserve">
<g>
	<path fill="none" stroke="#DDE5ED" stroke-miterlimit="10" d="M66.565,149.696c1.208,0.128,2.479-0.132,3.664-0.887
		c12.259-7.753,15.643-5.408,22.897-0.784c3.931,2.51,8.397,5.363,13.572,5.911c5.189,0.549,10.139-1.307,14.516-2.938
		c8.996-3.36,9.737-3.274,17.823,1.886c3.938,2.511,8.39,5.363,13.579,5.912c5.182,0.548,10.139-1.307,14.508-2.939
		c9.019-3.358,9.721-3.276,17.831,1.887c3.938,2.511,8.397,5.363,13.572,5.911c1.303,0.138,2.591,0.123,3.86-0.001
		c3.774-6.827,11.155-11.222,19.312-10.947c-0.901-1.762-1.541-3.667-1.888-5.664c-3.641,0.345-7.158,1.525-10.813,2.89
		c-3.499,1.299-6.783,2.528-9.259,2.266c-2.469-0.261-5.422-2.15-8.572-4.153c-11.265-7.189-15.672-7.602-28.087-2.973
		c-3.484,1.301-6.783,2.528-9.251,2.267c-2.469-0.261-5.437-2.152-8.572-4.153c-11.265-7.189-15.68-7.603-28.095-2.973
		c-3.476,1.301-6.775,2.529-9.251,2.267c-2.469-0.261-5.43-2.151-8.572-4.153c-9.556-6.104-18.076-10.229-35.317,0.783
		c-1.54,0.973-2.451,2.562-2.628,4.235C61.039,146.7,63.584,149.381,66.565,149.696z"/>
	<path fill="none" stroke="#DDE5ED" stroke-miterlimit="10" d="M238.274,123.662c-6.102-29.761-33.977-54.062-75.864-58.495
		c-50.618-5.357-87.333,21.926-91.351,59.888l148.668,15.734C221.078,131.294,228.934,124.232,238.274,123.662z"/>
	<path fill="none" stroke="#DDE5ED" stroke-miterlimit="10" d="M221.007,202.751c-0.828-2.443-1.379-5.003-1.614-7.641
		c-0.21-0.016-0.418-0.012-0.629-0.035c-11.677-1.236-20.141-11.703-18.905-23.38c0.074-0.7,0.185-1.386,0.324-2.062l-29.45-3.117
		c-16.711-1.583-22.998,12.977-31.922,12.079c-8.924-0.898-10.999-16.49-29.099-18.536l-34.248-3.625
		c-8.438-0.893-16.01,5.23-16.903,13.668c-0.893,8.438,5.23,16.01,13.668,16.903L221.007,202.751z"/>
	<path fill="none" stroke="#DDE5ED" stroke-miterlimit="10" d="M225.102,210.913L63.779,193.84
		c-4.297,15.188,0.647,30.982,19.693,32.998c35.241,3.73,87.029,9.357,122.285,12.942c16.298,1.658,25.078-8.926,26.236-21.534
		C229.332,216.161,227.011,213.685,225.102,210.913z"/>
</g>
<g>
</g>
<g>
</g>
<g>
</g>
<g>
</g>
<g>
</g>
<g>
</g>
<g>
</g>
<g>
</g>
<g>
</g>
<g>
</g>
<g>
</g>
<g>
</g>
<g>
</g>
<g>
</g>
<g>
</g>
</svg>
