<?xml version="1.0" encoding="iso-8859-1"?>
<!-- Generator: Adobe Illustrator 26.2.1, SVG Export Plug-In . SVG Version: 6.00 Build 0)  -->
<svg version="1.1" id="Layer_1" xmlns="http://www.w3.org/2000/svg" xmlns:xlink="http://www.w3.org/1999/xlink" x="0px" y="0px"
	 width="300px" height="300px" viewBox="0 0 300 300" enable-background="new 0 0 300 300" xml:space="preserve">
<path fill-rule="evenodd" clip-rule="evenodd" fill="none" stroke="#101820" stroke-miterlimit="10" d="M179.05,218.551
	l-0.007-0.001c-4.693-0.709-9.281-5.223-8.358-11.334l8.432-55.793c0,0-7.69-1.182-16.193-2.447
	c12.205-45.125,34.256-88.816,44.476-87.272c2.934,0.443,4.923,3.141,4.453,6.386c-1.318,9.167-16.46,109.043-21.47,142.103
	C189.563,215.628,184.485,219.373,179.05,218.551z"/>
<path fill-rule="evenodd" clip-rule="evenodd" fill="none" stroke="#101820" stroke-miterlimit="10" d="M110.369,165.482
	c-0.867-4.504-3.974-5.434-11.076-9.177c-5.246-2.776-9.471-7.864-10.007-13.771c-1.542-16.854-3.889-50.461-3.889-50.461
	l3.911-0.753l7.531,39.112l6.538-1.259L97.3,89.78l3.957-0.762l8.659,38.895l6.538-1.259L110.5,87.239l3.664-0.705l8.828,38.862
	l6.538-1.259l-7.531-39.112l3.579-0.689c0,0,10.676,31.78,15.676,48.023c1.771,5.757-0.417,12.195-4.357,16.766
	c-5.244,6.087-7.789,8.037-6.907,12.613l13.713,71.217c1.039,5.397-2.504,10.623-7.928,11.667
	c-5.417,1.043-10.648-2.493-11.687-7.89C124.088,236.731,110.369,165.482,110.369,165.482z"/>
</svg>
