<?xml version="1.0" encoding="utf-8"?>
<!-- Generator: Adobe Illustrator 26.0.3, SVG Export Plug-In . SVG Version: 6.00 Build 0)  -->
<svg version="1.1" id="Layer_1" xmlns="http://www.w3.org/2000/svg" xmlns:xlink="http://www.w3.org/1999/xlink" x="0px" y="0px"
	 viewBox="0 0 630.9 422" style="enable-background:new 0 0 630.9 422;" xml:space="preserve">
<style type="text/css">
	.st0{fill:#FFFFFF;}
</style>
<g>
	<path class="st0" d="M0,416.9v-80.1c0-2.8,2.3-5.1,5.1-5.1H25c2.8,0,5.1-2.3,5.1-5.1v-80.3c0-2.8,2.3-5.1,5.1-5.1h19.9
		c2.8,0,5.1-2.3,5.1-5.1v-80.3c0-2.8,2.3-5.1,5.1-5.1h19.9c2.8,0,5.1-2.3,5.1-5.1V65.4c0-2.8,2.3-5.1,5.1-5.1h20.2
		c2.8,0,5.1-2.3,5.1-5.1V5.1c0-2.8,2.3-5.1,5.1-5.1h80.3c2.8,0,5.1,2.3,5.1,5.1v50.2c0,2.8,2.3,5.1,5.1,5.1H236
		c2.8,0,5.1,2.3,5.1,5.1v80.3c0,2.8,2.3,5.1,5.1,5.1h19.9c2.8,0,5.1,2.3,5.1,5.1v80.3c0,2.8,2.3,5.1,5.1,5.1h19.9
		c2.8,0,5.1,2.3,5.1,5.1v80.3c0,2.8,2.3,5.1,5.1,5.1h20.2c2.8,0,5.1,2.3,5.1,5.1v80.1c0,2.8-2.3,5.1-5.1,5.1h-50.2
		c-2.8,0-5.1-2.3-5.1-5.1V337c0-2.8-2.3-5.1-5.1-5.1h-201c-2.8,0-5.1,2.3-5.1,5.1v80.1c0,2.8-2.3,5.1-5.1,5.1H5
		C2.3,422,0,419.7,0,416.9z M241.1,266.3v-19.9c0-2.8-2.3-5.1-5.1-5.1h-19.9c-2.8,0-5.1-2.3-5.1-5.1v-80.3c0-2.8-2.3-5.1-5.1-5.1
		h-20.2c-2.8,0-5.1-2.3-5.1-5.1V95.5c0-2.8-2.3-5.1-5.1-5.1h-19.9c-2.8,0-5.1,2.3-5.1,5.1v50.2c0,2.8-2.3,5.1-5.1,5.1h-19.9
		c-2.8,0-5.1,2.3-5.1,5.1v80.3c0,2.8-2.3,5.1-5.1,5.1h-20c-2.8,0-5.1,2.3-5.1,5.1v19.9c0,2.8,2.3,5.1,5.1,5.1H236
		C238.8,271.4,241.1,269.1,241.1,266.3z"/>
	<path class="st0" d="M419.9,416.9V397c0-2.8-2.3-5.1-5.1-5.1h-19.9c-2.8,0-5.1-2.3-5.1-5.1v-19.9c0-2.8-2.3-5.1-5.1-5.1h-19.9
		c-2.8,0-5.1-2.3-5.1-5.1v-50.2c0-2.8,2.3-5.1,5.1-5.1h19.9c2.8,0,5.1-2.3,5.1-5.1v-19.9c0-2.8,2.3-5.1,5.1-5.1h50
		c2.8,0,5.1-2.3,5.1-5.1v-19.9c0-2.8,2.3-5.1,5.1-5.1h110.6c2.8,0,5.1-2.3,5.1-5.1v-20.2c0-2.8-2.3-5.1-5.1-5.1h-20.2
		c-2.8,0-5.1-2.3-5.1-5.1V186c0-2.8-2.3-5.1-5.1-5.1H455c-2.8,0-5.1,2.3-5.1,5.1v19.9c0,2.8-2.3,5.1-5.1,5.1h-80.1
		c-2.8,0-5.1-2.3-5.1-5.1V186c0-2.8,2.3-5.1,5.1-5.1h19.9c2.8,0,5.1-2.3,5.1-5.1v-19.9c0-2.8,2.3-5.1,5.1-5.1h19.9
		c2.8,0,5.1-2.3,5.1-5.1v-19.9c0-2.8,2.3-5.1,5.1-5.1h140.7c2.8,0,5.1,2.3,5.1,5.1v19.9c0,2.8,2.3,5.1,5.1,5.1h19.9
		c2.8,0,5.1,2.3,5.1,5.1v19.9c0,2.8,2.3,5.1,5.1,5.1h19.9c2.8,0,5.1,2.3,5.1,5.1v230.9c0,2.8-2.3,5.1-5.1,5.1h-50
		c-2.8,0-5.1-2.3-5.1-5.1V397c0-2.8-2.3-5.1-5.1-5.1h-20.2c-2.8,0-5.1,2.3-5.1,5.1v19.9c0,2.8-2.3,5.1-5.1,5.1H425
		C422.2,422,419.9,419.7,419.9,416.9z M540.5,356.8v-19.9c0-2.8,2.3-5.1,5.1-5.1h20.2c2.8,0,5.1-2.3,5.1-5.1v-50.2
		c0-2.8-2.3-5.1-5.1-5.1h-20.2c-2.8,0-5.1,2.3-5.1,5.1v19.9c0,2.8-2.3,5.1-5.1,5.1H440c-2.8,0-5.1,2.3-5.1,5.1v50.2
		c0,2.8,2.3,5.1,5.1,5.1h95.4C538.2,361.8,540.5,359.6,540.5,356.8z"/>
</g>
</svg>
