<?xml version="1.0" encoding="utf-8"?>
<!-- Generator: Adobe Illustrator 26.2.1, SVG Export Plug-In . SVG Version: 6.00 Build 0)  -->
<svg version="1.1" id="Layer_1" xmlns="http://www.w3.org/2000/svg" xmlns:xlink="http://www.w3.org/1999/xlink" x="0px" y="0px"
	 width="300px" height="300px" viewBox="0 0 300 300" style="enable-background:new 0 0 300 300;" xml:space="preserve">
<style type="text/css">
	.st0{fill:none;stroke:#FFFFFF;stroke-miterlimit:10;}
</style>
<path class="st0" d="M179.1,218.6L179.1,218.6c-4.7-0.7-9.3-5.2-8.4-11.3l8.4-55.8c0,0-7.7-1.2-16.2-2.4
	c12.2-45.1,34.3-88.8,44.5-87.3c2.9,0.4,4.9,3.1,4.5,6.4c-1.3,9.2-16.5,109-21.5,142.1C189.6,215.6,184.5,219.4,179.1,218.6z"/>
<path class="st0" d="M110.4,165.5c-0.9-4.5-4-5.4-11.1-9.2c-5.2-2.8-9.5-7.9-10-13.8c-1.5-16.9-3.9-50.5-3.9-50.5l3.9-0.8l7.5,39.1
	l6.5-1.3l-6.1-39.4l4-0.8l8.7,38.9l6.5-1.3l-6-39.4l3.7-0.7l8.8,38.9l6.5-1.3L122,85l3.6-0.7c0,0,10.7,31.8,15.7,48
	c1.8,5.8-0.4,12.2-4.4,16.8c-5.2,6.1-7.8,8-6.9,12.6l13.7,71.2c1,5.4-2.5,10.6-7.9,11.7c-5.4,1-10.6-2.5-11.7-7.9
	C124.1,236.7,110.4,165.5,110.4,165.5z"/>
</svg>
