<?xml version="1.0" encoding="iso-8859-1"?>
<!-- Generator: Adobe Illustrator 26.2.1, SVG Export Plug-In . SVG Version: 6.00 Build 0)  -->
<svg version="1.1" id="Layer_1" xmlns="http://www.w3.org/2000/svg" xmlns:xlink="http://www.w3.org/1999/xlink" x="0px" y="0px"
	 width="300px" height="300px" viewBox="0 0 300 300" enable-background="new 0 0 300 300" xml:space="preserve">
<path fill-rule="evenodd" clip-rule="evenodd" fill="none" stroke="#DDE5ED" stroke-miterlimit="10" d="M225.672,129.166
	c-19.53,1.558-85.856,5.763-85.856,5.763l0.874-33.252c1.212-0.395,2.33-1.064,3.252-1.986c3.206-3.206,3.206-8.409,0.006-11.609
	c-1.542-1.542-3.633-2.41-5.807-2.399l-61.802-0.006c-2.181,0.006-4.266,0.869-5.802,2.405c-3.229,3.229-3.184,8.42,0,11.604
	c1.255,1.255,2.874,2.059,4.605,2.311l-0.19,82.292c-1.66,0.29-3.205,1.075-4.415,2.284c-1.536,1.536-2.399,3.621-2.41,5.796
	c0.011,2.175,0.869,4.266,2.41,5.807c1.536,1.536,3.627,2.394,5.802,2.405l61.797-0.011c2.181,0.006,4.266-0.858,5.807-2.399
	c1.542-1.542,2.405-3.627,2.399-5.807c0.006-2.169-0.863-4.26-2.405-5.802c-0.97-0.97-2.16-1.67-3.453-2.055l-0.673-33.17
	c0,0,66.287,5.174,85.873,6.609c4.115,0.303,8.218-0.762,11.312-3.498c6.329-5.578,6.424-15.438,0.734-21.128
	C234.832,130.422,230.605,128.773,225.672,129.166z"/>
<path fill-rule="evenodd" clip-rule="evenodd" fill="none" stroke="#DDE5ED" stroke-miterlimit="10" d="M147.073,221.348
	c0-8.76-7.095-15.855-15.855-15.855H83.652c-8.76,0-15.855,7.095-15.855,15.855v2.927h-7.928v15.855H155v-15.855h-7.928V221.348z"/>
<line fill-rule="evenodd" clip-rule="evenodd" fill="none" stroke="#DDE5ED" stroke-miterlimit="10" x1="61.388" y1="197.825" x2="40.152" y2="174.504"/>
<line fill-rule="evenodd" clip-rule="evenodd" fill="none" stroke="#DDE5ED" stroke-miterlimit="10" x1="56.079" y1="202.945" x2="27.377" y2="207.945"/>
<line fill-rule="evenodd" clip-rule="evenodd" fill="none" stroke="#DDE5ED" stroke-miterlimit="10" x1="64.99" y1="206.737" x2="33.705" y2="228.732"/>
<line fill-rule="evenodd" clip-rule="evenodd" fill="none" stroke="#DDE5ED" stroke-miterlimit="10" x1="150.125" y1="198.773" x2="164.725" y2="169.574"/>
<line fill-rule="evenodd" clip-rule="evenodd" fill="none" stroke="#DDE5ED" stroke-miterlimit="10" x1="160.134" y1="200.885" x2="182.438" y2="192.595"/>
<line fill-rule="evenodd" clip-rule="evenodd" fill="none" stroke="#DDE5ED" stroke-miterlimit="10" x1="150.125" y1="206.737" x2="174.221" y2="224.894"/>
<g>
</g>
<g>
</g>
<g>
</g>
<g>
</g>
<g>
</g>
<g>
</g>
<g>
</g>
<g>
</g>
<g>
</g>
<g>
</g>
<g>
</g>
<g>
</g>
<g>
</g>
<g>
</g>
<g>
</g>
</svg>
