<?xml version="1.0" encoding="iso-8859-1"?>
<!-- Generator: Adobe Illustrator 26.2.1, SVG Export Plug-In . SVG Version: 6.00 Build 0)  -->
<svg version="1.1" id="Layer_1" xmlns="http://www.w3.org/2000/svg" xmlns:xlink="http://www.w3.org/1999/xlink" x="0px" y="0px"
	 width="300px" height="300px" viewBox="0 0 300 300" enable-background="new 0 0 300 300" xml:space="preserve">
<g>
	<path fill="none" stroke="#FFFFFF" stroke-miterlimit="10" d="M253.603,193.254c-6.065-3.74-12.134-7.473-18.195-11.219
		c-23.416-14.473-46.832-28.945-70.229-43.447c-0.876-0.543-2.343-1.661-2.207-2.069c0.792-2.378,0.026-4.012-1.254-5.411
		c-1.252-1.369-1.455-3.395-0.418-4.933c1.207-1.791,6.98-9.939,9.586-13.678c0.651,0.447,1.297,0.889,1.949,1.336
		c1.78,1.221,4.247,0.811,5.464-0.971c0.007-0.01,0.013-0.02,0.02-0.029c1.421-2.093,2.943-4.142,4.128-6.366
		c2.147-4.027,1.268-8.62-2.547-11.289c-13.139-9.192-26.356-18.274-39.666-27.216c-4.026-2.705-9.003-1.637-11.968,2.182
		c-1.388,1.787-2.663,3.663-3.988,5.626c-1.215,1.8-0.754,4.246,1.038,5.474c0.77,0.528,1.537,1.054,2.307,1.582
		c-8.882,12.988-27.414,40.283-36.697,53.868c-0.821-0.563-1.636-1.122-2.458-1.686c-1.787-1.225-4.235-0.783-5.478,0.992
		c-1.388,1.982-2.696,3.861-3.871,5.821c-2.391,3.988-1.639,9.063,2.133,11.707c13.227,9.271,26.552,18.405,39.966,27.403
		c3.896,2.614,8.858,1.598,11.689-2.031c1.449-1.857,2.759-3.823,4.114-5.869c1.192-1.8,0.722-4.226-1.059-5.447
		c-0.6-0.411-1.196-0.82-1.796-1.232c2.896-4.402,8.104-12.437,9.19-14.009c0.969-1.402,2.727-2.016,4.362-1.536
		c1.47,0.432,2.726,0.761,3.531,0.301c2.736-1.563,4.225-0.236,6.051,1.147c27.341,20.707,54.684,41.413,82.037,62.104
		c6.65,5.03,13.139,3.842,17.856-3.208C261.933,204.066,260.634,197.59,253.603,193.254z"/>
	<path fill="none" stroke="#FFFFFF" stroke-miterlimit="10" d="M140.232,217.395h-0.608c0-11.99-4.179-14.615-14.811-14.615
		c-18.705,0.028-37.41-0.002-56.115,0.028c-14.394,0-13.849,7.722-13.885,14.587h-0.866c-2.181,0-3.949,1.768-3.949,3.949v8.251
		c0,2.181,1.768,3.949,3.949,3.949h86.285c2.181,0,3.949-1.768,3.949-3.949v-8.251C144.181,219.163,142.413,217.395,140.232,217.395
		z"/>
</g>
<g>
</g>
<g>
</g>
<g>
</g>
<g>
</g>
<g>
</g>
<g>
</g>
<g>
</g>
<g>
</g>
<g>
</g>
<g>
</g>
<g>
</g>
<g>
</g>
<g>
</g>
<g>
</g>
<g>
</g>
</svg>
