<?xml version="1.0" encoding="utf-8"?>
<!-- Generator: Adobe Illustrator 26.2.1, SVG Export Plug-In . SVG Version: 6.00 Build 0)  -->
<svg version="1.1" id="Layer_1" xmlns="http://www.w3.org/2000/svg" xmlns:xlink="http://www.w3.org/1999/xlink" x="0px" y="0px"
	 width="300px" height="300px" viewBox="0 0 300 300" style="enable-background:new 0 0 300 300;" xml:space="preserve">
<style type="text/css">
	.st0{fill:none;stroke:#FFFFFF;stroke-miterlimit:10;}
</style>
<path class="st0" d="M163,218.9c28.6-6.4,9.3-33,35.1-41.3l14.1,5.8C225.6,216.2,186.7,236.6,163,218.9z M235.1,148.7
	c4.4-16.4,17-70.5,17-70.5c1-4.5-5-6.9-7.5-3.1c0,0-29.1,47.3-37.4,62c-6.6,11.6-5.4,15.6-3.9,30.9l12.9,5.3
	C227.9,163.6,231.6,161.6,235.1,148.7z"/>
<line class="st0" x1="52.5" y1="215.3" x2="149.4" y2="220.2"/>
<line class="st0" x1="49.4" y1="205.8" x2="128.6" y2="211.1"/>
<line class="st0" x1="69.3" y1="189.6" x2="147.8" y2="208.9"/>
<line class="st0" x1="33.6" y1="194" x2="84.5" y2="201.5"/>
<line class="st0" x1="102.3" y1="184" x2="162.7" y2="205.8"/>
<line class="st0" x1="81.4" y1="237.5" x2="141.7" y2="229.6"/>
</svg>
