<?xml version="1.0" encoding="iso-8859-1"?>
<!-- Generator: Adobe Illustrator 26.2.1, SVG Export Plug-In . SVG Version: 6.00 Build 0)  -->
<svg version="1.1" id="Layer_1" xmlns="http://www.w3.org/2000/svg" xmlns:xlink="http://www.w3.org/1999/xlink" x="0px" y="0px"
	 width="300px" height="300px" viewBox="0 0 300 300" enable-background="new 0 0 300 300" xml:space="preserve">
<g id="cWf52F.tif">
	<g>
		<g>
			<path fill="none" stroke="#DDE5ED" stroke-miterlimit="10" d="M154.9,242.734c-1.77,0.678-3.54,1.357-5.31,2.035
				c-0.282,0.047-0.572,0.066-0.844,0.145c-6.207,1.807-12.602,2.167-19.156,0.925c-13.335-2.527-24.317-9.9-33.025-21.908
				c-16.529-22.791-33.077-45.567-49.628-68.34c-1.29-1.774-2.158-3.709-2.596-5.861c-1.251-6.155,1.739-11.844,7.094-13.102
				c4.378-1.029,8.221,0.677,11.38,4.546c8.302,10.166,16.566,20.369,24.85,30.553c0.342,0.421,0.732,0.795,1.099,1.192
				c0.105-0.075,0.209-0.15,0.314-0.225c-0.226-0.589-0.417-1.196-0.686-1.763c-0.35-0.738-0.765-1.444-1.146-2.166
				c-3.478-6.59-6.955-13.18-10.434-19.77c-3.707-7.023-7.416-14.046-11.123-21.069c-3.234-6.128-6.409-12.29-9.715-18.375
				c-3.207-5.902-1.947-13.259,2.939-16.402c4.708-3.028,11.543-0.779,14.908,4.928c1.557,2.64,3.073,5.307,4.604,7.964
				c6.158,10.683,12.316,21.366,18.473,32.05c2.264,3.929,4.521,7.862,6.793,11.786c0.201,0.347,0.489,0.638,0.737,0.955
				c0.096-0.058,0.191-0.117,0.287-0.175c-0.103-0.386-0.173-0.785-0.314-1.157c-7.39-19.462-14.786-38.921-22.183-58.381
				c-1.573-4.137-3.186-8.259-4.72-12.41c-2.144-5.8-0.1-12.021,4.716-14.523c4.662-2.422,10.719-0.441,13.842,4.772
				c1.328,2.217,2.24,4.722,3.278,7.125c3.131,7.25,6.228,14.516,9.343,21.774c3.774,8.793,7.555,17.584,11.33,26.377
				c2.34,5.45,4.665,10.908,7.037,16.344c0.203,0.465,0.717,0.79,1.086,1.18c0.134-0.536,0.292-1.064,0.39-1.611
				c0.036-0.2-0.065-0.446-0.115-0.669c-0.378-1.688-0.765-3.375-1.138-5.064c-3.839-17.368-7.67-34.737-11.518-52.103
				c-1.502-6.778,2.485-13.282,8.519-13.835c4.947-0.453,10.188,3.38,11.953,8.896c0.907,2.834,1.588,5.736,2.356,8.611
				c1.891,7.077,3.778,14.156,5.659,21.235c2.016,7.585,4.022,15.172,6.037,22.758c1.906,7.174,3.763,14.361,5.753,21.514
				c0.84,3.019,1.871,6.002,2.983,8.938c2.436,6.43,8.518,6.125,11.125,2.934c1.047-1.281,1.953-2.801,2.568-4.405
				c2.818-7.355,5.49-14.789,8.255-22.173c1.223-3.266,3.29-5.695,6.326-6.927c5.35-2.17,10.417-0.669,15.119,3.325
				c5.143,4.367,7.499,11.494,5.116,18.154c-3.909,10.924-7.543,21.99-11.557,32.858c-4.224,11.437-8.387,22.914-14.39,33.321
				c-5.495,9.526-12.604,17.064-21.611,22.451C158.309,240.952,156.589,241.814,154.9,242.734z"/>
		</g>
	</g>
</g>
</svg>
