<?xml version="1.0" encoding="utf-8"?>
<!-- Generator: Adobe Illustrator 26.2.1, SVG Export Plug-In . SVG Version: 6.00 Build 0)  -->
<svg version="1.1" id="Layer_1" xmlns="http://www.w3.org/2000/svg" xmlns:xlink="http://www.w3.org/1999/xlink" x="0px" y="0px"
	 width="300px" height="300px" viewBox="0 0 300 300" style="enable-background:new 0 0 300 300;" xml:space="preserve">
<style type="text/css">
	.st0{fill:none;stroke:#FFFFFF;stroke-miterlimit:10;}
</style>
<g id="cWf52F.tif">
	<g>
		<g>
			<path class="st0" d="M146,242.4c-1.8-0.5-3.6-1.1-5.5-1.6c-0.3-0.1-0.5-0.3-0.8-0.4c-6-2.3-11.3-5.9-15.8-10.8
				c-9.1-10.1-13.4-22.6-13.1-37.4c0.6-28.1,1.2-56.3,1.8-84.4c0-2.2,0.5-4.3,1.5-6.2c2.7-5.7,8.5-8.4,13.6-6.2
				c4.1,1.8,6.1,5.5,6.3,10.5c0.5,13.1,0.9,26.2,1.3,39.4c0,0.5,0.1,1.1,0.2,1.6c0.1,0,0.3,0,0.4,0c0.2-0.6,0.4-1.2,0.5-1.8
				c0.2-0.8,0.3-1.6,0.4-2.4c1.2-7.4,2.4-14.7,3.6-22.1c1.3-7.8,2.6-15.7,3.9-23.5c1.1-6.8,2.3-13.7,3.4-20.5
				c1-6.6,6.5-11.7,12.3-11.3c5.6,0.4,9.7,6.4,8.9,12.9c-0.4,3-0.8,6.1-1.1,9.1c-1.6,12.2-3.1,24.5-4.7,36.7
				c-0.6,4.5-1.2,9-1.7,13.5c-0.1,0.4,0,0.8,0,1.2c0.1,0,0.2,0,0.3,0c0.2-0.4,0.3-0.7,0.4-1.1c5.9-20,11.7-39.9,17.6-59.9
				c1.2-4.2,2.5-8.5,3.7-12.7c1.8-5.9,7.2-9.6,12.5-8.7c5.2,0.9,8.8,6.1,8.1,12.2c-0.3,2.6-1.1,5.1-1.7,7.7
				c-1.9,7.7-3.8,15.3-5.7,23c-2.3,9.3-4.6,18.6-6.9,27.9c-1.4,5.8-2.9,11.5-4.3,17.3c-0.1,0.5,0.1,1.1,0.2,1.6
				c0.4-0.3,0.9-0.7,1.3-1c0.1-0.1,0.2-0.4,0.3-0.6c0.7-1.6,1.4-3.2,2.2-4.7c7.4-16.2,14.9-32.3,22.3-48.5c2.9-6.3,10-9.1,15.1-5.9
				c4.2,2.6,6.1,8.9,4.1,14.3c-1,2.8-2.2,5.5-3.3,8.3c-2.8,6.8-5.5,13.6-8.3,20.3c-3,7.3-6,14.5-8.9,21.8
				c-2.8,6.9-5.7,13.7-8.4,20.6c-1.2,2.9-2.1,5.9-3,8.9c-1.9,6.6,3.1,10,7.1,9.1c1.6-0.4,3.2-1.1,4.7-2c6.7-4.2,13.3-8.5,20-12.7
				c2.9-1.9,6.1-2.5,9.2-1.7c5.6,1.5,8.7,5.8,10,11.8c1.5,6.6-1,13.7-6.9,17.6c-9.7,6.3-19.3,13-29.1,19.2
				c-10.3,6.6-20.5,13.2-31.6,17.8c-10.1,4.3-20.4,6-30.8,4.8C149.8,243,147.9,242.6,146,242.4z"/>
		</g>
	</g>
</g>
</svg>
