<?xml version="1.0" encoding="iso-8859-1"?>
<!-- Generator: Adobe Illustrator 26.2.1, SVG Export Plug-In . SVG Version: 6.00 Build 0)  -->
<svg version="1.1" id="Layer_1" xmlns="http://www.w3.org/2000/svg" xmlns:xlink="http://www.w3.org/1999/xlink" x="0px" y="0px"
	 width="300px" height="300px" viewBox="0 0 300 300" enable-background="new 0 0 300 300" xml:space="preserve">
<g id="cWf52F.tif">
	<g>
		<g>
			<path fill="none" stroke="#161616" stroke-miterlimit="10" d="M145.97,242.35c-1.82-0.53-3.64-1.059-5.46-1.589
				c-0.253-0.133-0.495-0.293-0.76-0.395c-6.037-2.312-11.349-5.891-15.819-10.842c-9.096-10.074-13.388-22.585-13.067-37.415
				c0.609-28.148,1.193-56.294,1.773-84.44c0.045-2.193,0.523-4.259,1.475-6.238c2.724-5.66,8.545-8.384,13.571-6.15
				c4.11,1.827,6.14,5.508,6.318,10.501c0.468,13.117,0.885,26.24,1.329,39.36c0.018,0.542,0.102,1.076,0.155,1.614
				c0.129,0.004,0.257,0.007,0.386,0.011c0.176-0.606,0.391-1.204,0.519-1.819c0.167-0.8,0.263-1.612,0.396-2.418
				c1.212-7.352,2.426-14.704,3.638-22.056c1.292-7.836,2.582-15.672,3.874-23.508c1.128-6.836,2.323-13.665,3.368-20.51
				c1.013-6.64,6.463-11.74,12.256-11.29c5.581,0.433,9.667,6.356,8.898,12.938c-0.356,3.044-0.76,6.085-1.146,9.127
				c-1.551,12.233-3.104,24.466-4.657,36.699c-0.571,4.498-1.151,8.996-1.713,13.495c-0.05,0.398,0.004,0.804,0.009,1.206
				c0.112,0.011,0.223,0.022,0.335,0.034c0.151-0.37,0.337-0.73,0.449-1.112c5.876-19.971,11.747-39.944,17.617-59.917
				c1.248-4.246,2.454-8.505,3.741-12.739c1.798-5.917,7.187-9.637,12.535-8.719c5.178,0.889,8.806,6.128,8.143,12.168
				c-0.282,2.569-1.07,5.116-1.696,7.657c-1.888,7.668-3.813,15.329-5.718,22.993c-2.308,9.286-4.611,18.574-6.918,27.861
				c-1.43,5.757-2.877,11.509-4.273,17.274c-0.119,0.493,0.094,1.062,0.152,1.596c0.431-0.346,0.876-0.671,1.284-1.048
				c0.149-0.138,0.217-0.395,0.312-0.603c0.719-1.573,1.431-3.151,2.154-4.722c7.439-16.157,14.887-32.309,22.318-48.47
				c2.9-6.308,10.009-9.079,15.149-5.872c4.215,2.63,6.073,8.851,4.145,14.312c-0.99,2.806-2.202,5.529-3.328,8.284
				c-2.771,6.781-5.547,13.56-8.327,20.337c-2.979,7.261-5.967,14.518-8.947,21.778c-2.818,6.867-5.683,13.715-8.421,20.617
				c-1.155,2.912-2.138,5.913-3.026,8.924c-1.945,6.595,3.083,10.028,7.089,9.062c1.608-0.388,3.249-1.05,4.708-1.957
				c6.69-4.156,13.313-8.463,19.979-12.674c2.948-1.862,6.063-2.548,9.227-1.694c5.574,1.505,8.702,5.764,10.035,11.788
				c1.457,6.588-0.974,13.69-6.898,17.554c-9.717,6.339-19.301,12.959-29.068,19.19c-10.279,6.558-20.533,13.185-31.605,17.846
				c-10.135,4.267-20.355,5.975-30.787,4.822C149.763,242.99,147.872,242.637,145.97,242.35z"/>
		</g>
	</g>
</g>
</svg>
