<?xml version="1.0" encoding="utf-8"?>
<!-- Generator: Adobe Illustrator 26.2.1, SVG Export Plug-In . SVG Version: 6.00 Build 0)  -->
<svg version="1.1" id="Layer_1" xmlns="http://www.w3.org/2000/svg" xmlns:xlink="http://www.w3.org/1999/xlink" x="0px" y="0px"
	 width="300px" height="300px" viewBox="0 0 300 300" style="enable-background:new 0 0 300 300;" xml:space="preserve">
<style type="text/css">
	.st0{fill:none;stroke:#DDE5ED;stroke-miterlimit:10;}
</style>
<g id="cWf52F.tif">
	<g>
		<g>
			<path class="st0" d="M154.9,242.7c-1.8,0.7-3.5,1.4-5.3,2c-0.3,0-0.6,0.1-0.8,0.1c-6.2,1.8-12.6,2.2-19.2,0.9
				c-13.3-2.5-24.3-9.9-33-21.9c-16.5-22.8-33.1-45.6-49.6-68.3c-1.3-1.8-2.2-3.7-2.6-5.9c-1.3-6.2,1.7-11.8,7.1-13.1
				c4.4-1,8.2,0.7,11.4,4.5c8.3,10.2,16.6,20.4,24.9,30.6c0.3,0.4,0.7,0.8,1.1,1.2c0.1-0.1,0.2-0.1,0.3-0.2
				c-0.2-0.6-0.4-1.2-0.7-1.8c-0.3-0.7-0.8-1.4-1.1-2.2c-3.5-6.6-7-13.2-10.4-19.8c-3.7-7-7.4-14-11.1-21.1
				c-3.2-6.1-6.4-12.3-9.7-18.4c-3.2-5.9-1.9-13.3,2.9-16.4c4.7-3,11.5-0.8,14.9,4.9c1.6,2.6,3.1,5.3,4.6,8
				c6.2,10.7,12.3,21.4,18.5,32c2.3,3.9,4.5,7.9,6.8,11.8c0.2,0.3,0.5,0.6,0.7,1c0.1-0.1,0.2-0.1,0.3-0.2c-0.1-0.4-0.2-0.8-0.3-1.2
				C97,130,89.6,110.6,82.2,91.1c-1.6-4.1-3.2-8.3-4.7-12.4c-2.1-5.8-0.1-12,4.7-14.5c4.7-2.4,10.7-0.4,13.8,4.8
				c1.3,2.2,2.2,4.7,3.3,7.1c3.1,7.2,6.2,14.5,9.3,21.8c3.8,8.8,7.6,17.6,11.3,26.4c2.3,5.5,4.7,10.9,7,16.3
				c0.2,0.5,0.7,0.8,1.1,1.2c0.1-0.5,0.3-1.1,0.4-1.6c0-0.2-0.1-0.4-0.1-0.7c-0.4-1.7-0.8-3.4-1.1-5.1c-3.8-17.4-7.7-34.7-11.5-52.1
				c-1.5-6.8,2.5-13.3,8.5-13.8c4.9-0.5,10.2,3.4,12,8.9c0.9,2.8,1.6,5.7,2.4,8.6c1.9,7.1,3.8,14.2,5.7,21.2c2,7.6,4,15.2,6,22.8
				c1.9,7.2,3.8,14.4,5.8,21.5c0.8,3,1.9,6,3,8.9c2.4,6.4,8.5,6.1,11.1,2.9c1-1.3,2-2.8,2.6-4.4c2.8-7.4,5.5-14.8,8.3-22.2
				c1.2-3.3,3.3-5.7,6.3-6.9c5.4-2.2,10.4-0.7,15.1,3.3c5.1,4.4,7.5,11.5,5.1,18.2c-3.9,10.9-7.5,22-11.6,32.9
				c-4.2,11.4-8.4,22.9-14.4,33.3C176.1,227,169,234.6,160,240C158.3,241,156.6,241.8,154.9,242.7z"/>
		</g>
	</g>
</g>
</svg>
