<?xml version="1.0" encoding="utf-8"?>
<!-- Generator: Adobe Illustrator 26.2.1, SVG Export Plug-In . SVG Version: 6.00 Build 0)  -->
<svg version="1.1" id="Layer_1" xmlns="http://www.w3.org/2000/svg" xmlns:xlink="http://www.w3.org/1999/xlink" x="0px" y="0px"
	 width="300px" height="300px" viewBox="0 0 300 300" style="enable-background:new 0 0 300 300;" xml:space="preserve">
<style type="text/css">
	.st0{fill:none;stroke:#DDE5ED;stroke-miterlimit:10;}
</style>
<path class="st0" d="M223.9,242.1L223.9,242.1c-4.3,2-10.6,0.7-13.2-4.9l-23.5-51.3c0,0-7.1,3.2-14.9,6.8
	c-14.5-44.4-20-93.1-10.6-97.4c2.7-1.2,5.8-0.1,7.2,2.9c3.9,8.4,46,100.2,59.9,130.6C231.1,233.9,228.9,239.8,223.9,242.1z"/>
<path class="st0" d="M101.4,125.8c1.4-4.4-0.9-6.7-5.5-13.3c-3.3-4.9-4.7-11.4-2.3-16.9c6.6-15.6,20.3-46.4,20.3-46.4l3.8,1.2
	l-11.8,38.1l6.4,2l13.2-37.6l3.8,1.2l-10.7,38.4l6.4,2l13.3-37.6l3.6,1.1l-10.5,38.4l6.4,2l11.8-38.1l3.5,1.1c0,0-5.5,33.1-8.8,49.7
	c-1.1,5.9-6.1,10.6-11.7,12.7c-7.5,2.9-10.7,3.4-12,7.9L99,201c-1.6,5.3-7.2,8.2-12.5,6.6c-5.3-1.6-8.2-7.2-6.6-12.5
	C79.9,195.1,101.4,125.8,101.4,125.8z"/>
</svg>
